<svg xmlns="http://www.w3.org/2000/svg" viewBox="0 0 19 10">
  <rect width="19" height="10" fill="#fff"/>
  <g fill="#B22234">
    <rect y="0" width="19" height="0.769"/>
    <rect y="1.538" width="19" height="0.769"/>
    <rect y="3.077" width="19" height="0.769"/>
    <rect y="4.615" width="19" height="0.769"/>
    <rect y="6.154" width="19" height="0.769"/>
    <rect y="7.692" width="19" height="0.769"/>
    <rect y="9.231" width="19" height="0.769"/>
  </g>
  <rect width="7.6" height="5.385" fill="#3C3B6E"/>
  <g fill="#fff">
    <circle cx="1.1" cy="0.9" r="0.28"/><circle cx="2.6" cy="0.9" r="0.28"/><circle cx="4.1" cy="0.9" r="0.28"/><circle cx="5.6" cy="0.9" r="0.28"/><circle cx="7.0" cy="0.9" r="0.28"/>
    <circle cx="1.85" cy="1.9" r="0.28"/><circle cx="3.35" cy="1.9" r="0.28"/><circle cx="4.85" cy="1.9" r="0.28"/><circle cx="6.35" cy="1.9" r="0.28"/>
    <circle cx="1.1" cy="2.9" r="0.28"/><circle cx="2.6" cy="2.9" r="0.28"/><circle cx="4.1" cy="2.9" r="0.28"/><circle cx="5.6" cy="2.9" r="0.28"/><circle cx="7.0" cy="2.9" r="0.28"/>
    <circle cx="1.85" cy="3.9" r="0.28"/><circle cx="3.35" cy="3.9" r="0.28"/><circle cx="4.85" cy="3.9" r="0.28"/><circle cx="6.35" cy="3.9" r="0.28"/>
    <circle cx="1.1" cy="4.9" r="0.28"/><circle cx="2.6" cy="4.9" r="0.28"/><circle cx="4.1" cy="4.9" r="0.28"/><circle cx="5.6" cy="4.9" r="0.28"/><circle cx="7.0" cy="4.9" r="0.28"/>
  </g>
</svg>
